<?xml version="1.0" encoding="utf-8"?>
<!-- Generator: Adobe Illustrator 22.0.0, SVG Export Plug-In . SVG Version: 6.00 Build 0)  -->
<svg version="1.1" id="Layer_1" xmlns="http://www.w3.org/2000/svg" xmlns:xlink="http://www.w3.org/1999/xlink" x="0px" y="0px"
	 viewBox="0 0 28 28" style="enable-background:new 0 0 28 28;" xml:space="preserve">
<g>
	<path d="M22.6,0H5.4C2.4,0,0,2.4,0,5.4v5.7v2.1v9.4c0,3,2.4,5.4,5.4,5.4h17.2c3,0,5.4-2.4,5.4-5.4v-9.4v-2.1V5.4
		C28,2.4,25.6,0,22.6,0z M24.2,3.2h0.6v0.6V8h-4.7V3.2L24.2,3.2z M10,11.1c0.9-1.2,2.4-2,4-2c1.7,0,3.1,0.8,4,2
		c0.1,0.1,0.2,0.3,0.3,0.5c0.4,0.7,0.6,1.5,0.6,2.4c0,2.7-2.2,4.9-4.9,4.9S9,16.7,9,14c0-0.9,0.2-1.7,0.6-2.4
		C9.8,11.4,9.9,11.3,10,11.1z M25.3,22.6c0,1.5-1.2,2.7-2.7,2.7H5.4c-1.5,0-2.7-1.2-2.7-2.7v-10v-1.4h4.2c-0.1,0.2-0.2,0.5-0.3,0.8
		c-0.2,0.7-0.3,1.4-0.3,2.1c0,4.2,3.4,7.7,7.7,7.7s7.7-3.4,7.7-7.7c0-0.7-0.1-1.4-0.3-2.1c-0.1-0.3-0.2-0.5-0.3-0.8h4.2v1.4
		L25.3,22.6L25.3,22.6z"/>
</g>
</svg>
