<?xml version="1.0" encoding="utf-8"?>
<!-- Generator: Adobe Illustrator 18.1.0, SVG Export Plug-In . SVG Version: 6.00 Build 0)  -->
<svg version="1.1" id="Layer_1" xmlns="http://www.w3.org/2000/svg" xmlns:xlink="http://www.w3.org/1999/xlink" x="0px" y="0px"
	 width="28px" height="28px" viewBox="0 0 28 28" enable-background="new 0 0 28 28" xml:space="preserve">
<g>
	<path fill="#1E1B1C" d="M6.7,27.2H0V9.9h6.7V27.2z M3.4,7.3L3.4,7.3C1.3,7.3,0,5.7,0,4c0-1.8,1.3-3.2,3.4-3.2
		c2.1,0,3.3,1.5,3.4,3.3C6.7,5.7,5.4,7.3,3.4,7.3z M18.7,15.3c-1.5,0-2.7,1.2-2.7,2.7v9.3H9.4c0,0,0.1-16,0-17.3H16v2
		c0,0,2.1-1.9,5.2-1.9c3.9,0,6.7,2.9,6.7,8.4v8.9h-6.7v-9.3C21.3,16.5,20.1,15.3,18.7,15.3z"/>
</g>
</svg>
