<?xml version="1.0" encoding="utf-8"?>
<!-- Generator: Adobe Illustrator 18.1.0, SVG Export Plug-In . SVG Version: 6.00 Build 0)  -->
<svg version="1.1" id="Layer_1" xmlns="http://www.w3.org/2000/svg" xmlns:xlink="http://www.w3.org/1999/xlink" x="0px" y="0px"
	 width="28px" height="28px" viewBox="0 0 28 28" enable-background="new 0 0 28 28" xml:space="preserve">
<g>
	<path d="M28,5.7c-1,0.5-1.9,0.5-2.8,0c1.2-0.7,1.2-1.2,1.6-2.5c-1.1,0.6-2.3,1.1-3.6,1.4c-1-1.1-2.5-1.8-4.1-1.8
		c-3.1,0-5.7,2.5-5.7,5.7c0,0.4,0.1,0.9,0.1,1.3C8.9,9.5,4.7,7.2,1.9,3.8C1.4,4.6,1.2,5.6,1.2,6.7c0,2,1,3.7,2.5,4.7
		c-0.9,0-1.8-0.3-2.6-0.7c0,0,0,0,0,0.1c0,2.7,2,5,4.5,5.6c-0.8,0.2-1.7,0.3-2.6,0.1c0.7,2.3,2.8,3.9,5.3,3.9C6,22.2,3,23,0,22.7
		c2.5,1.6,5.5,2.5,8.7,2.5c10.4,0,16.1-8.6,16.1-16.1c0-0.2,0-0.5,0-0.7C25.9,7.6,27.2,6.8,28,5.7z"/>
</g>
</svg>
